<svg width="20" height="20" viewBox="0 0 20 20"  xmlns="http://www.w3.org/2000/svg">
<path d="M10 9.99997C11.6574 9.98502 12.9878 8.63046 12.9728 6.97303C12.9579 5.3156 11.6033 3.98526 9.94589 4.00021C8.28846 4.01516 6.95812 5.36971 6.97307 7.02714C6.98802 8.68458 8.34257 10.0149 10 9.99997ZM10.0135 11.4999C8.01111 11.518 4.02284 12.559 4.04083 14.5539L4.0476 15.3039C4.05132 15.7163 4.39185 16.0508 4.80433 16.0471L15.3039 15.9524C15.7164 15.9487 16.0508 15.6081 16.0471 15.1956L16.0403 14.4457C16.0224 12.4508 12.016 11.4818 10.0135 11.4999Z" fill="#212121"/>
</svg>
